<svg xmlns="http://www.w3.org/2000/svg" width="1200" height="340" viewBox="0 0 1200 340" role="img" aria-labelledby="t d">
  <title id="t">campus-secondhand-market · 校园二手交易平台</title>
  <desc id="d">Django + DRF + MySQL + Vue3 + 微信小程序 C2C 校园二手交易平台,一后端三前端联调。左侧标题与技术栈,右侧展示后端中心节点与三前端辐射架构。</desc>
  <rect width="1200" height="340" rx="22" fill="#161a0e"/>
  <rect x="0" y="0" width="6" height="340" rx="3" fill="#eab308"/>

  <g transform="translate(56,54)" font-family="-apple-system,BlinkMacSystemFont,'Segoe UI','PingFang SC',sans-serif">
    <text x="0" y="0" font-size="15" letter-spacing="4" fill="#eab308" font-weight="600">CAMPUS · C2C MARKET</text>
    <text x="0" y="52" font-size="40" font-weight="700" fill="#eef0e3">校园二手交易平台</text>
    <text x="0" y="96" font-size="17" fill="#90967a">Django + DRF + Vue3 + 微信小程序</text>
    <text x="0" y="122" font-size="17" fill="#90967a">一后端 · 三前端 · 端到端联调</text>

    <g transform="translate(0,160)" font-size="13.5" font-family="ui-monospace,SFMono-Regular,Menlo,monospace">
      <g><rect width="80" height="30" rx="8" fill="none" stroke="#2a3018"/><text x="40" y="20" text-anchor="middle" fill="#c2c6ab">Django</text></g>
      <g transform="translate(92,0)"><rect width="64" height="30" rx="8" fill="none" stroke="#2a3018"/><text x="32" y="20" text-anchor="middle" fill="#c2c6ab">DRF</text></g>
      <g transform="translate(168,0)"><rect width="76" height="30" rx="8" fill="none" stroke="#2a3018"/><text x="38" y="20" text-anchor="middle" fill="#c2c6ab">MySQL</text></g>
      <g transform="translate(256,0)"><rect width="72" height="30" rx="8" fill="none" stroke="#2a3018"/><text x="36" y="20" text-anchor="middle" fill="#c2c6ab">Vue3+TS</text></g>
      <g transform="translate(340,0)"><rect width="96" height="30" rx="8" fill="none" stroke="#2a3018"/><text x="48" y="20" text-anchor="middle" fill="#c2c6ab">Element Plus</text></g>
      <g transform="translate(448,0)"><rect width="92" height="30" rx="8" fill="none" stroke="#3a4a1e"/><text x="46" y="20" text-anchor="middle" fill="#65a30d">微信小程序</text></g>
    </g>
    <text x="0" y="236" font-size="13" font-family="ui-monospace,SFMono-Regular,Menlo,monospace" fill="#5a5e48">用户/商品/订单/私聊/评价/信用分/AI · ui-ux-pro-max 升级</text>
  </g>

  <g transform="translate(712,52)" font-family="-apple-system,BlinkMacSystemFont,'Segoe UI','PingFang SC',sans-serif">
    <text x="0" y="0" font-size="12" letter-spacing="3" fill="#5a5e48">ONE BACKEND · THREE FRONTENDS</text>

    <path d="M210,120 L210,60" stroke="#3a4a1e" stroke-width="1.6" stroke-dasharray="4 4"/>
    <path d="M210,120 L96,180" stroke="#3a4a1e" stroke-width="1.6" stroke-dasharray="4 4"/>
    <path d="M210,120 L324,180" stroke="#3a4a1e" stroke-width="1.6" stroke-dasharray="4 4"/>

    <g transform="translate(120,18)">
      <rect width="180" height="46" rx="9" fill="#1f2410" stroke="#3a4a1e"/>
      <text x="90" y="22" text-anchor="middle" font-size="13" fill="#65a30d" font-weight="600">微信小程序</text>
      <text x="90" y="38" text-anchor="middle" font-size="10" fill="#5a5e48" font-family="ui-monospace,monospace">买家端 · C 端</text>
    </g>

    <g transform="translate(120,174)">
      <rect width="180" height="46" rx="9" fill="#1f2410" stroke="#3a4a1e"/>
      <text x="90" y="22" text-anchor="middle" font-size="13" fill="#eef0e3" font-weight="600">Web 卖家工作台</text>
      <text x="90" y="38" text-anchor="middle" font-size="10" fill="#5a5e48" font-family="ui-monospace,monospace">Vue3 + TS · :3000</text>
    </g>

    <g transform="translate(6,174)">
      <rect width="180" height="46" rx="9" fill="#1f2410" stroke="#3a4a1e"/>
      <text x="90" y="22" text-anchor="middle" font-size="13" fill="#eef0e3" font-weight="600">Web 管理后台</text>
      <text x="90" y="38" text-anchor="middle" font-size="10" fill="#5a5e48" font-family="ui-monospace,monospace">平台运营</text>
    </g>

    <g transform="translate(150,96)">
      <rect width="120" height="50" rx="10" fill="#2a2410" stroke="#6b5a1a"/>
      <text x="60" y="22" text-anchor="middle" font-size="13.5" fill="#eab308" font-weight="700">Django + DRF</text>
      <text x="60" y="38" text-anchor="middle" font-size="10" fill="#9c8438" font-family="ui-monospace,monospace">backend :8000</text>
    </g>

    <g transform="translate(0,244)">
      <rect width="420" height="40" rx="8" fill="#11140a" stroke="#2a3018"/>
      <text x="14" y="25" font-size="11.5" fill="#c2c6ab">业务域：用户 · 商品 · 订单 · 私聊 · 评价 · 信用分 · AI</text>
      <text x="406" y="25" font-size="10" fill="#5a5e48" text-anchor="end" font-family="ui-monospace,monospace">market/</text>
    </g>
  </g>

  <text x="56" y="312" font-size="12" font-family="ui-monospace,SFMono-Regular,Menlo,monospace" fill="#5a5e48">author: liem · Day01-Day04 · finance_legacy 已下线</text>
</svg>
